<?xml version="1.0" encoding="UTF-8"?>
<!DOCTYPE svg PUBLIC "-//W3C//DTD SVG 1.1//EN" "http://www.w3.org/Graphics/SVG/1.1/DTD/svg11.dtd">
<!-- Creator: CorelDRAW X7 -->
<svg xmlns="http://www.w3.org/2000/svg" xml:space="preserve" width="15.2398mm" height="3.3866mm" version="1.1" style="shape-rendering:geometricPrecision; text-rendering:geometricPrecision; image-rendering:optimizeQuality; fill-rule:evenodd; clip-rule:evenodd"
viewBox="0 0 1524 339"
 xmlns:xlink="http://www.w3.org/1999/xlink">
 <defs>
  <style type="text/css">
   <![CDATA[
    .fil0 {fill:#DF3338;fill-rule:nonzero}
   ]]>
  </style>
 </defs>
 <g id="Layer_x0020_1">
  <metadata id="CorelCorpID_0Corel-Layer"/>
  <path class="fil0" d="M261 54l-83 230 46 0 7 -20 20 -58 0 0 8 -25 1 -1 0 0 20 -58 19 58 21 64 0 0 14 40 47 0 -84 -230 -36 0zm305 160c-4,23 -14,41 -29,53 -15,13 -34,19 -56,19 -25,0 -45,-8 -62,-25 -10,-10 -16,-21 -19,-35 -2,-12 -4,-31 -4,-57 0,-25 2,-44 4,-57 3,-13 9,-24 19,-34 17,-17 37,-26 62,-26 22,0 41,7 56,19 15,13 25,31 29,54l-46 0c-5,-22 -18,-32 -39,-32 -12,0 -22,3 -28,11 -8,8 -12,30 -12,65 0,36 4,57 12,65 6,8 16,12 28,12 21,0 34,-11 39,-32l46 0zm38 70l0 -40 45 0 75 0 32 0 0 40 -152 0zm0 -95l0 -40 45 0 94 0 13 0 0 40 -16 0 -91 0 -45 0zm0 -95l0 -40 152 0 0 40 -29 0 -78 0 -45 0zm240 0l43 0c9,0 17,3 23,9 6,5 9,13 9,22 0,9 -3,16 -9,22 -9,9 -20,8 -32,8l0 40 44 89 52 0 -52 -99c12,-4 22,-11 30,-21 8,-11 12,-24 12,-39 0,-20 -6,-37 -19,-50 -14,-14 -33,-21 -55,-21l-90 0 0 230 44 0 0 -190zm255 0l0 190 -45 0 0 -190 -60 0 0 -40 165 0 0 40 -60 0zm96 190l0 -40 45 0 61 0 45 0 0 40 -151 0zm0 -95l0 -40 45 0 80 0 26 0 0 40 -29 0 -77 0 -45 0zm0 -95l0 -40 151 0 0 40 -41 0 -65 0 -45 0z"/>
 </g>
</svg>
